<?xml version="1.0" standalone="no"?>
<!DOCTYPE svg PUBLIC "-//W3C//DTD SVG 20010904//EN"
 "http://www.w3.org/TR/2001/REC-SVG-20010904/DTD/svg10.dtd">
<svg version="1.0" xmlns="http://www.w3.org/2000/svg"
 width="700.000000pt" height="700.000000pt" viewBox="0 0 700.000000 700.000000"
 preserveAspectRatio="xMidYMid meet">
<metadata>
Created by potrace 1.11, written by Peter Selinger 2001-2013
</metadata>
<g transform="translate(0.000000,700.000000) scale(0.100000,-0.100000)"
fill="#000000" stroke="none">
<path d="M3421 6955 c-40 -25 -74 -45 -75 -45 -2 0 -123 -70 -270 -155 -147
-85 -270 -155 -272 -155 -3 0 -17 -8 -32 -19 -15 -10 -166 -99 -337 -197 -170
-98 -447 -257 -615 -354 -168 -97 -471 -272 -675 -390 -203 -117 -437 -252
-520 -300 l-150 -86 -3 -1749 c-2 -1655 -1 -1748 15 -1761 15 -11 410 -242
533 -312 67 -37 545 -314 600 -346 30 -18 163 -95 295 -171 132 -76 273 -157
314 -181 40 -24 77 -44 82 -44 5 0 9 -4 9 -10 0 -5 5 -10 11 -10 9 0 144 -76
299 -169 19 -11 51 -29 70 -40 19 -10 193 -110 385 -221 193 -112 365 -211
383 -221 l32 -19 228 131 c397 230 465 269 471 269 2 0 12 6 20 14 9 7 41 27
71 43 30 17 98 55 150 85 52 31 114 66 136 79 56 32 398 230 432 250 15 9 47
27 72 41 41 24 890 514 970 561 19 11 55 31 80 45 25 13 50 27 55 32 6 4 30
19 55 32 25 14 86 49 135 78 50 29 104 60 120 70 l30 17 3 1756 c1 991 -2
1757 -7 1757 -4 0 -116 62 -247 138 -132 77 -259 150 -284 164 -25 14 -85 49
-135 78 -49 29 -106 61 -125 72 -19 11 -64 37 -100 58 -36 21 -81 47 -100 58
-19 10 -208 120 -420 242 -1065 616 -1609 930 -1613 930 -1 0 -35 -21 -76 -45z
m149 -1208 c30 -18 80 -47 110 -64 30 -16 136 -77 235 -135 99 -58 225 -131
280 -162 55 -32 107 -62 115 -67 79 -48 434 -249 441 -249 5 0 9 -4 9 -10 0
-5 4 -10 9 -10 5 0 49 -23 98 -51 48 -28 104 -60 123 -71 19 -11 64 -37 100
-58 36 -21 83 -48 105 -61 121 -69 241 -138 268 -155 17 -10 18 -72 17 -1120
0 -610 0 -1126 0 -1147 0 -25 -5 -40 -16 -44 -9 -3 -53 -27 -98 -53 -44 -26
-227 -132 -406 -235 -772 -445 -990 -571 -1065 -615 -44 -25 -87 -50 -95 -54
-8 -4 -24 -12 -35 -19 -132 -78 -255 -147 -265 -147 -11 0 -108 55 -650 368
-118 68 -231 133 -250 144 -19 11 -91 53 -160 93 -69 39 -145 83 -170 97 -130
73 -509 293 -532 309 -15 11 -30 19 -33 19 -5 0 -174 97 -183 105 -4 4 -4
2287 0 2290 3 3 421 244 848 490 107 62 310 179 450 260 140 81 300 174 355
205 55 31 147 84 205 118 58 34 112 62 120 62 8 0 40 -15 70 -33z"/>
</g>
</svg>
